<svg width="71" height="114" viewBox="0 0 71 114" fill="none" xmlns="http://www.w3.org/2000/svg">
<g id="9mobile">
<path id="vector" fill-rule="evenodd" clip-rule="evenodd" d="M13.5969 101.7C15.2126 101.7 16.3934 102.014 17.1391 102.643C17.8848 103.272 18.2581 104.25 18.2589 105.577V112.689H15.8353V105.878C15.8353 104.378 14.92 103.628 13.0892 103.628C12.2985 103.622 11.5221 103.823 10.8508 104.207C10.967 104.655 11.0216 105.116 11.0133 105.577V112.689H8.5897V105.878C8.5897 104.378 7.67434 103.628 5.84362 103.628C5.00828 103.629 4.1798 103.767 3.39734 104.035V112.689H0.974985V102.814C1.77697 102.448 2.62594 102.176 3.50189 102.004C4.43622 101.804 5.39189 101.7 6.35127 101.694C7.86287 101.694 8.98608 101.964 9.72089 102.504C10.9311 101.973 12.2557 101.698 13.5969 101.7ZM26.5627 113.016C24.7152 113.016 23.3266 112.53 22.397 111.559C21.4673 110.587 21.0021 109.174 21.0012 107.317C21.0012 103.561 22.8488 101.683 26.5438 101.684C28.4056 101.684 29.8055 102.166 30.7435 103.129C31.6816 104.093 32.151 105.489 32.1519 107.317C32.1519 109.144 31.6673 110.551 30.6982 111.537C29.7291 112.523 28.3506 113.016 26.5627 113.016ZM26.5388 111.109C28.6626 111.109 29.7241 109.845 29.7232 107.317C29.7232 106.061 29.4713 105.122 28.9674 104.501C28.4635 103.88 27.6557 103.569 26.5438 103.568C25.421 103.568 24.6173 103.886 24.1328 104.521C23.6482 105.157 23.406 106.089 23.406 107.317C23.406 108.545 23.6558 109.484 24.1555 110.134C24.6551 110.785 25.4496 111.108 26.5388 111.104V111.109ZM40.2427 101.705C41.966 101.705 43.2735 102.183 44.1654 103.14C45.0572 104.096 45.5044 105.451 45.5069 107.205C45.5069 109.319 44.9724 110.815 43.9033 111.693C42.8343 112.571 41.4755 113.012 39.827 113.016C36.5191 113.016 34.8652 112.202 34.8652 110.574V97.6299H37.2661V102.369C37.7489 102.157 38.2559 101.995 38.7777 101.886C39.2568 101.773 39.7483 101.711 40.2427 101.7V101.705ZM39.6419 111.066C40.9015 111.066 41.7833 110.73 42.2872 110.059C42.7911 109.388 43.043 108.467 43.043 107.295C43.043 106.096 42.7776 105.183 42.2469 104.554C41.7161 103.925 40.928 103.611 39.8825 103.612C39.427 103.615 38.9735 103.668 38.5321 103.771C38.0902 103.87 37.666 104.025 37.2724 104.234V110.021C37.2682 110.715 38.058 111.062 39.6419 111.061V111.066ZM48.2454 98.1911H50.8303V100.227H48.2454V98.1911ZM48.3147 102.004H50.7383L50.761 112.694H48.3147V102.004ZM54.1722 112.694V97.8659H56.5731V112.689L54.1722 112.694ZM64.6917 101.675C66.4922 101.675 67.8115 102.215 68.6496 103.295C69.4877 104.375 69.8992 105.885 69.8841 107.825H61.7567C61.8348 108.882 62.1707 109.686 62.7644 110.236C63.3581 110.786 64.2004 111.061 65.2913 111.06C66.5982 111.061 67.8842 110.759 69.03 110.182V112.281C67.83 112.771 66.4553 113.016 64.9059 113.016C63.1675 113.016 61.802 112.527 60.8094 111.548C59.8168 110.57 59.3209 109.181 59.3217 107.382C59.3217 105.54 59.7908 104.13 60.7288 103.152C61.6668 102.175 62.9878 101.682 64.6917 101.675ZM64.6224 103.526C63.807 103.526 63.1688 103.726 62.7077 104.127C62.2467 104.527 61.9465 105.205 61.8071 106.161H67.4151C67.3068 105.247 67.0297 104.58 66.5837 104.159C66.1378 103.739 65.484 103.528 64.6224 103.526ZM41.476 15.3952C38.8029 14.788 36.7455 14.4841 35.3036 14.4833C24.5472 14.4833 15.8265 22.4685 15.8265 32.3157C15.8265 42.1629 24.551 50.1493 35.3036 50.1493C46.0561 50.1493 54.7819 42.1641 54.7819 32.3157C54.7826 30.877 54.594 29.4436 54.2201 28.0465L69.7052 24.2148C70.9596 28.5959 71.1968 33.1705 70.4014 37.6413C69.606 42.1121 67.7959 46.3792 65.0885 50.1655L39.4466 93.8398H15.6917L32.5713 65.2551C32.6633 65.0978 32.3925 64.7506 32.1657 64.7321C14.1285 63.2276 0 49.3403 0 32.4337C0 14.5203 15.8593 1.97131e-05 35.4245 1.97131e-05C39.006 -0.00359805 42.5676 0.490754 45.9881 1.46628L41.476 15.3952Z" fill="#006E53"/>
<path id="Vector" d="M35.1874 42.1236C41.0835 42.1236 45.8632 37.7324 45.8632 32.3157C45.8632 26.899 41.0835 22.5078 35.1874 22.5078C29.2914 22.5078 24.5117 26.899 24.5117 32.3157C24.5117 37.7324 29.2914 42.1236 35.1874 42.1236Z" fill="#D6E806"/>
<path id="Vector_2" d="M53.6272 25.6286C51.7777 21.3751 48.2129 17.9414 43.6758 16.0429M60.4219 22.953C57.8098 17.0538 52.8708 12.2774 46.5919 9.57836M66.9734 20.9474C63.6462 13.1703 57.1035 6.91931 48.7749 3.56055" stroke="#D6E806" stroke-width="4" stroke-linecap="round"/>
</g>
</svg>
