<svg width="121" height="121" viewBox="0 0 121 121" fill="none" xmlns="http://www.w3.org/2000/svg">
<g id="glo">
<path id="Vector" d="M60.4357 112.545C89.0845 112.545 112.309 89.3208 112.309 60.672C112.309 32.0232 89.0845 8.79883 60.4357 8.79883C31.7869 8.79883 8.5625 32.0232 8.5625 60.672C8.5625 89.3208 31.7869 112.545 60.4357 112.545Z" fill="#50B651"/>
<path id="Vector_2" opacity="0.663" fill-rule="evenodd" clip-rule="evenodd" d="M112.151 60.5257C112.151 89.2645 88.8542 112.562 60.1218 112.562C31.3894 112.562 8.08594 89.2645 8.08594 60.5257C8.08594 47.8127 8.44227 45.9226 13.4464 38.6849C13.4464 38.6849 13.1882 46.8599 19.1825 51.7246C22.9098 54.7469 26.7997 52.565 33.9199 49.2858C41.6223 45.7354 47.8839 43.445 52.7693 44.0492C60.1283 44.9607 82.8107 58.5826 94.6484 55.8701C104.105 53.7076 103.107 31.4111 103.107 31.4111C113.436 41.4968 112.151 48.3136 112.151 60.5257Z" fill="url(#paint0_linear_370_979)"/>
<path id="Vector_3" opacity="0.586" fill-rule="evenodd" clip-rule="evenodd" d="M82.4492 98.7477C101.268 81.0456 104.397 60.7658 91.8339 37.9081C91.8976 37.9546 92.6748 35.2727 94.1655 29.8623C100.851 37.9589 104.407 47.9525 104.831 59.8431C104.827 75.2445 97.3669 88.2127 82.4492 98.7477Z" fill="url(#paint1_linear_370_979)"/>
<path id="Vector_4" opacity="0.744" fill-rule="evenodd" clip-rule="evenodd" d="M73.522 29.9695C64.4381 24.9422 54.0167 14.8293 55.402 12.7056C56.7873 10.5818 74.7678 10.9472 83.853 15.9745C92.9381 21.0019 100.67 36.0826 99.2862 38.2064C97.9022 40.3302 82.6058 34.9969 73.522 29.9695Z" fill="url(#paint2_radial_370_979)"/>
<path id="Vector_5" fill-rule="evenodd" clip-rule="evenodd" d="M81.4342 73.4471C73.8983 73.4471 67.7891 67.1635 67.7891 59.4133C67.7891 51.6631 73.8983 45.3809 81.4342 45.3809C88.9701 45.3809 95.0806 51.6631 95.0806 59.4133C95.0806 67.1635 88.9714 73.4471 81.4342 73.4471ZM81.531 68.9955C86.2343 68.9955 90.052 64.7053 90.052 59.4133C90.052 54.1213 86.2343 49.835 81.531 49.835C76.8277 49.835 73.0101 54.1252 73.0101 59.4159C73.0101 64.7066 76.8277 68.9955 81.531 68.9955Z" fill="white"/>
<path id="Vector_6" fill-rule="evenodd" clip-rule="evenodd" d="M53.2812 34.0811H63.1139V73.2903H57.716V38.3815H53.2812V34.0811Z" fill="white"/>
<path id="Vector_7" fill-rule="evenodd" clip-rule="evenodd" d="M45.9509 45.7796H51.0544V78.5233C51.0544 81.5069 47.9159 84.6144 44.8574 85.952C43.4114 86.5837 40.7432 86.959 36.8528 87.0778V83.8204C40.658 83.3961 43.2263 82.5496 44.5578 81.2809C45.3262 80.2132 45.8064 78.9656 45.9522 77.6583V68.0386C44.588 70.9332 42.87 72.8521 40.7983 73.7954C38.6448 74.9574 34.2617 74.7663 32.4723 73.7954C30.6829 72.8246 28.0582 70.2683 26.8549 66.461C26.5218 65.41 25.693 62.5504 25.7795 59.5203C25.8569 56.6348 26.8123 53.5814 27.6063 52.3265C28.9697 50.1834 31.1193 47.4993 34.3753 46.3773C35.9659 45.8291 38.9138 45.632 43.219 45.786V49.0253C40.0198 48.8093 38.0238 48.9173 37.2311 49.3493C36.0421 49.9949 33.358 50.7915 32.4723 56.6412C31.5866 62.491 32.4981 67.2782 35.3062 68.7771C36.268 69.2935 37.9696 69.9042 39.5421 69.3658C42.5632 68.333 45.4061 64.6496 45.623 62.154C45.8416 59.6218 45.9509 54.1637 45.9509 45.7796Z" fill="white"/>
<path id="Vector_8" fill-rule="evenodd" clip-rule="evenodd" d="M110.518 70.9403C105.698 94.1469 85.1343 111.584 60.4997 111.584C32.2863 111.584 9.41406 88.7116 9.41406 60.4982C9.41406 42.9709 18.241 27.5054 31.6912 18.3066C20.7624 27.3698 13.8036 41.0614 13.8036 56.372C13.8036 83.6817 35.9426 105.819 63.2509 105.819C85.4906 105.819 104.299 91.1388 110.518 70.9403Z" fill="url(#paint3_radial_370_979)"/>
<path id="Vector_9" fill-rule="evenodd" clip-rule="evenodd" d="M60.5 0C27.0876 0 0 27.0863 0 60.4987C0 93.9111 27.0876 120.999 60.5 120.999C93.9124 120.999 121 93.9111 121 60.4987C121 27.0863 93.9124 0 60.5 0ZM60.5 111.586C32.2866 111.586 9.41435 88.7134 9.41435 60.5C9.41435 42.9727 18.2413 27.5072 31.6915 18.3084C40.1741 12.4988 50.2186 9.39725 60.5 9.41306C88.7134 9.41306 111.586 32.2841 111.586 60.4987C111.587 64.0067 111.23 67.5057 110.518 70.9407C105.698 94.1474 85.1346 111.584 60.5 111.584V111.586Z" fill="white"/>
</g>
<defs>
<linearGradient id="paint0_linear_370_979" x1="58.1116" y1="38.5171" x2="64.7812" y2="98.7485" gradientUnits="userSpaceOnUse">
<stop stop-color="#123214"/>
<stop offset="0.46" stop-color="#3E7C37"/>
<stop offset="0.91" stop-color="#5FBB46"/>
</linearGradient>
<linearGradient id="paint1_linear_370_979" x1="96.6411" y1="34.6021" x2="96.6411" y2="83.3076" gradientUnits="userSpaceOnUse">
<stop stop-color="white" stop-opacity="0"/>
<stop offset="0.64" stop-color="white" stop-opacity="0.43"/>
<stop offset="1" stop-color="white" stop-opacity="0.42"/>
</linearGradient>
<radialGradient id="paint2_radial_370_979" cx="0" cy="0" r="1" gradientUnits="userSpaceOnUse" gradientTransform="translate(78.4497 25.7972) rotate(26.7606) scale(25.633 10.6757)">
<stop offset="0.13" stop-color="white"/>
<stop offset="0.29" stop-color="white" stop-opacity="0.69"/>
<stop offset="0.45" stop-color="white" stop-opacity="0.4"/>
<stop offset="0.59" stop-color="white" stop-opacity="0.18"/>
<stop offset="0.69" stop-color="white" stop-opacity="0.05"/>
<stop offset="0.74" stop-color="white" stop-opacity="0"/>
</radialGradient>
<radialGradient id="paint3_radial_370_979" cx="0" cy="0" r="1" gradientUnits="userSpaceOnUse" gradientTransform="translate(69.2597 48.7279) rotate(39.84) scale(57.4428 62.6126)">
<stop offset="0.86" stop-opacity="0"/>
<stop offset="0.98" stop-opacity="0.47"/>
<stop offset="1"/>
</radialGradient>
</defs>
</svg>
