<svg width="123" height="45" viewBox="0 0 123 45" fill="none" xmlns="http://www.w3.org/2000/svg">
<g id="ipnx">
<g id="g10">
<path id="path12" d="M78.0207 21.4032V7.19907C78.0279 6.24792 77.9803 5.29678 77.8789 4.35037C77.656 2.47465 76.6655 1.57974 74.7688 1.41473C73.8617 1.33583 72.9565 1.232 72.0245 1.13785V0.482944H104.755V1.15639C104.176 1.18626 103.593 1.19512 103.014 1.25054C102.574 1.2973 102.139 1.37209 101.71 1.47674C101.342 1.53957 101.087 1.87743 101.126 2.24927C101.16 2.69508 101.193 3.17632 101.383 3.57145C101.82 4.47027 102.34 5.33139 102.85 6.19807C103.838 7.86943 104.84 9.53049 105.857 11.2332C105.935 11.1689 106.008 11.0988 106.077 11.0232C107.68 8.91884 109.304 6.82805 110.866 4.68843C111.231 4.15239 111.489 3.55043 111.626 2.91633C111.854 1.97404 111.384 1.41308 110.42 1.32223C109.579 1.24168 108.735 1.18297 107.866 1.11127V0.48439H119.549V1.15165C119.143 1.17658 118.73 1.20707 118.313 1.22726C116.396 1.31729 114.715 1.94273 113.441 3.43548C111.8 5.35879 110.169 7.29157 108.55 9.23424C107.881 10.0342 107.247 10.8638 106.577 11.6629C106.386 11.8916 106.373 12.0444 106.53 12.2978C109.254 16.686 111.96 21.0742 114.69 25.4528C115.772 27.1878 116.912 28.8857 118.018 30.6053C119.02 32.1633 120.478 32.8706 122.287 32.9511C122.52 32.9616 122.751 33.0001 123.001 33.0284V33.6987H101.993V33.03C102.535 33.005 103.074 33.0034 103.621 32.9464C104.022 32.9118 104.417 32.8279 104.799 32.6977C105.4 32.4779 105.704 31.9759 105.521 31.3595C105.323 30.6199 105.035 29.9086 104.661 29.2398C102.937 26.3394 101.16 23.4708 99.4078 20.5874C99.3812 20.544 99.3458 20.5052 99.292 20.4329C98.7648 21.1128 98.2409 21.7712 97.7364 22.4415C95.9499 24.8162 94.1595 27.1878 92.3995 29.5841C92.0905 30.0188 91.8563 30.5023 91.7073 31.0151C91.3983 32.0257 91.9094 32.7146 92.9434 32.7999C93.8704 32.8788 94.8113 32.9544 95.7663 33.0348V33.694H83.285V33.0502C83.8701 33.0237 84.4513 32.9929 85.0339 32.973C87.2822 32.8957 88.9721 31.8028 90.3644 30.1113C93.1068 26.778 95.8621 23.4561 98.6322 20.1455C98.859 19.8736 98.8573 19.6956 98.6771 19.4101C95.6811 14.6292 92.7149 9.83064 89.6971 5.06419C89.1001 4.10089 88.3959 3.2101 87.5968 2.40625C86.4928 1.3247 85.0322 1.16278 83.5458 1.27402C83.0389 1.31255 82.536 1.38816 82.0321 1.45346C80.3834 1.66833 79.3943 2.54861 79.1424 4.20802C79.0081 5.2428 78.9508 6.28665 78.971 7.3303C78.9574 15.9528 78.9574 24.5764 78.971 33.1998V33.7308H73.7734C73.5416 33.7469 73.3179 33.6392 73.1866 33.4468C66.8751 25.3714 60.5613 17.2985 54.2434 9.22785C53.4725 8.2421 52.7 7.25634 51.9258 6.27038C51.8502 6.17479 51.7713 6.08538 51.6265 5.92923C51.603 6.04109 51.5853 6.15378 51.5758 6.26729C51.5758 13.4164 51.5814 20.5648 51.5927 27.7131C51.5758 28.6265 51.6514 29.5392 51.8195 30.4372C52.1285 31.8848 53.0403 32.6003 54.5098 32.7265C55.016 32.7733 55.5197 32.8384 56.025 32.8811C56.5303 32.9245 57.0357 32.973 57.5701 33.0204V33.6987H44.4602V33.0638C45.2328 32.9785 46.0255 32.9093 46.8069 32.803C47.3759 32.7298 47.9416 32.6374 48.5065 32.5336C49.2219 32.42 49.819 31.9275 50.066 31.2468C50.2955 30.6673 50.4516 30.0623 50.5295 29.4434C50.6067 28.6257 50.6374 27.8042 50.6205 26.9824C50.6269 20.2646 50.6269 13.546 50.6205 6.82661C50.6205 6.07179 50.5754 5.31449 50.548 4.55885C50.5488 4.46862 50.5256 4.37942 50.4813 4.30051C49.5108 2.85762 48.3495 1.63372 46.5566 1.29895C45.797 1.15639 44.9996 1.21037 44.219 1.17493H44V0.462757H61.0434C61.2879 0.445866 61.523 0.559376 61.6614 0.761265C66.9717 7.54991 72.2862 14.3355 77.6054 21.1177C77.7028 21.2407 77.8169 21.3503 77.9232 21.4661L78.0207 21.4032Z" fill="#4D4D4D"/>
<path id="path14" d="M29.7757 18.0538C30.587 16.7823 31.452 15.4504 32.2897 14.1033C34.2348 10.9744 38.445 11.2353 40.5325 12.7128C42.3994 14.0294 43.3804 15.8029 43.5889 18.0505C43.9381 21.8005 42.6755 25.0686 40.5639 28.0749C39.0977 30.1624 37.3563 31.9545 35.0137 33.0627C32.9384 34.0453 30.7648 34.4443 28.4768 34.055C28.3104 34.0234 28.1462 33.9824 27.9853 33.9309C26.2085 33.3998 25.4914 32.4679 25.4293 30.609C25.4343 30.4883 25.411 30.3676 25.3618 30.2566C25.349 30.2928 25.3401 30.3299 25.3263 30.3637C23.9358 33.7291 22.5341 37.0895 21.1546 40.459C20.9326 41.0012 20.7548 41.5606 20.6213 42.1312C20.4579 42.8265 20.5922 43.4259 21.5483 43.4719C22.505 43.5184 23.4722 43.5813 24.4605 43.6384V44.2812H7.04297V43.619C7.69971 43.5386 8.36434 43.4445 9.0316 43.3792C10.1132 43.2739 11.0047 42.7982 11.5037 41.8341C12.2763 40.3729 13.0181 38.8984 13.6668 37.3769C16.5894 30.4642 19.4874 23.5404 22.361 16.6059C22.6556 15.8591 22.9065 15.0955 23.1117 14.3198C23.2222 13.9358 23.1956 13.4974 22.8398 13.2471C22.4848 12.9968 22.0673 13.1328 21.7751 13.3629C21.1571 13.8483 20.5101 14.3406 19.9928 14.9313C18.5288 16.5802 17.2994 18.424 16.3384 20.4083C16.3167 20.455 16.2846 20.4968 16.2395 20.5628L15.6214 20.3407C15.9216 19.7719 16.196 19.2206 16.4978 18.6829C17.5076 16.8812 18.6238 15.1478 20.0958 13.6857C21.6552 12.1407 23.5312 11.4116 25.748 11.7286C27.8926 12.0377 29.235 13.3413 29.5706 15.5196C29.7018 16.3775 29.7154 17.2724 29.7757 18.0538ZM26.136 30.8544C26.136 31.0089 26.1246 31.1634 26.136 31.3179C26.2301 32.5298 27.2803 33.1077 28.3096 32.4559C28.7304 32.1735 29.0829 31.8008 29.3421 31.3663C32.1047 26.859 34.1534 22.0306 35.7171 16.9971C36.0397 15.9558 36.3351 14.8928 36.1637 13.7741C36.0197 12.8471 35.4031 12.4777 34.5671 12.9116C34.0537 13.1899 33.5933 13.5562 33.2062 13.9931C32.1698 15.1511 31.3144 16.458 30.6673 17.8702C29.2278 20.9307 27.9699 24.0738 26.9005 27.2824C26.5222 28.4442 26.1634 29.6161 26.136 30.8544Z" fill="#FE0101"/>
<path id="path16" d="M14.015 26.2925L14.5671 26.6016C13.2796 28.6207 12.095 30.6758 10.4558 32.4125C9.44821 33.4844 8.11969 33.9423 6.68726 34.112C5.74252 34.2497 4.78087 34.2184 3.84748 34.0204C1.96345 33.5818 0.693674 32.0495 0.448312 30.0467C0.239808 28.3349 0.644586 26.7545 1.37536 25.2432C2.62823 22.6414 3.92634 20.0591 5.1912 17.4638C5.63622 16.5522 6.04598 15.6235 6.4539 14.6932C6.58675 14.4245 6.67037 14.1339 6.70257 13.8362C6.71633 13.5883 6.66071 13.2181 6.49897 13.1127C6.24869 12.9952 5.95908 12.9952 5.70872 13.1127C5.28456 13.3397 4.89354 13.6246 4.54742 13.9577C3.07076 15.3812 1.82423 17.0254 0.853091 18.8311C0.784687 18.9551 0.712182 19.0767 0.633239 19.2157C0.525566 19.1819 0.426424 19.1553 0.324224 19.1216C0.222105 19.0878 0.134309 19.0443 0 18.9872C1.22552 16.9166 2.3885 14.826 4.23045 13.2486C5.62013 12.0175 7.47591 11.4485 9.3172 11.69C11.832 11.999 13.3785 13.7847 13.5241 16.3928C13.5853 17.5017 13.4116 18.6115 13.014 19.6487C11.9607 22.4468 10.5716 25.0789 9.12399 27.6831C8.53002 28.7503 8.00943 29.8584 7.47671 30.9583C7.35269 31.2312 7.26594 31.5192 7.21671 31.8146C7.09044 32.4881 7.60135 33.0103 8.25648 32.8189C8.72161 32.699 9.15528 32.4784 9.52715 32.1744C10.1919 31.5901 10.7994 30.9438 11.3411 30.2445C12.1394 29.1864 12.8458 28.0564 13.5886 26.9565C13.7406 26.7545 13.8686 26.5282 14.015 26.2925ZM13.6368 -0.000267029C16.1895 -0.000267029 18.0001 1.74113 18.0001 4.19966C18.0001 6.5768 16.0721 8.45087 13.6249 8.45252C11.1768 8.45417 9.31059 6.63387 9.31389 4.21016C9.3172 1.78625 11.1414 -0.000267029 13.6368 -0.000267029Z" fill="#FE0101"/>
</g>
</g>
</svg>
