<svg width="102" height="102" viewBox="0 0 102 102" fill="none" xmlns="http://www.w3.org/2000/svg">
<g id="mtn">
<path id="Vector" d="M0 0H102V102H0V0Z" fill="#FFC403"/>
<path id="Vector_2" d="M45.3408 44.9795V56.6224H42.1565V50.0919L40.0294 53.239H38.3625L36.024 50.0919V56.6224H33.1133V44.9795H36.0489L39.4074 49.5446L42.4177 44.9795H45.3408ZM46.2613 47.6166V44.9795H57.133V47.6166H53.3267V56.6224H50.0801V47.6166H46.2613ZM69.1118 44.9795V56.6224H66.4374L60.9643 49.9675V56.6224H58.0535V44.9795H60.9518L66.1886 51.398V44.9795H69.1118Z" fill="black"/>
<path id="Vector_3" d="M51.0002 68.7875C41.5963 68.7875 32.7272 67.0336 26.035 63.8368C19.0319 60.4907 15.1758 55.938 15.1758 50.9997C15.1758 46.0614 19.0319 41.5087 26.035 38.1626C32.7272 34.9658 41.5963 33.2119 51.0002 33.2119C60.4041 33.2119 69.2731 34.9658 75.9653 38.1626C82.9685 41.5087 86.8246 46.0614 86.8246 50.9997C86.8246 55.938 82.9685 60.4907 75.9653 63.8368C69.2731 67.0336 60.4041 68.7875 51.0002 68.7875ZM51.0002 35.8365C41.9694 35.8365 33.5109 37.5034 27.167 40.5385C21.1341 43.4244 17.8004 47.1436 17.8004 51.0122C17.8004 54.8807 21.1216 58.6 27.167 61.4734C33.5109 64.5085 41.9819 66.1753 51.0002 66.1753C60.0185 66.1753 68.4894 64.5085 74.8333 61.4734C80.8663 58.6 84.1999 54.8683 84.1999 51.0122C84.1999 47.1561 80.8787 43.4244 74.8333 40.5509C68.4894 37.5034 60.0309 35.8365 51.0002 35.8365Z" fill="black"/>
</g>
</svg>
