<svg width="121" height="60" viewBox="0 0 121 60" fill="none" xmlns="http://www.w3.org/2000/svg">
<g id="MTN Nigeria svg" clip-path="url(#clip0_370_777)">
<path id="Vector" d="M60.4983 0C27.3619 0 0.499329 13.4326 0.499329 30C0.499329 46.5674 27.3619 60 60.4983 60C93.6346 60 120.499 46.5674 120.499 30C120.499 13.4326 93.6325 0 60.4983 0ZM60.4983 55.2649C29.9781 55.2649 5.23642 43.9533 5.23642 30C5.23642 16.0467 29.9781 4.73718 60.4983 4.73718C91.0184 4.73718 115.762 16.0467 115.762 30C115.762 43.9533 91.0206 55.2649 60.4983 55.2649ZM52.9333 24.7379V20.0007H69.8666V24.7379H63.7706V40.0056H59.0272V24.7379H52.9333ZM90.2924 20.0007V40.0056H85.5553L76.9638 28.0992V40.0056H72.2288V20.0007H76.9638L85.5553 31.9072V20.0007H90.2924ZM30.5665 40.0056V20.0007H35.3036L40.5657 28.095L45.8277 20.0007H50.5648V40.0056H45.8277V28.6876L42.2293 34.2101H38.8956L35.2973 28.6876V40.0056H30.5665Z" fill="#FFCC00"/>
</g>
<defs>
<clipPath id="clip0_370_777">
<rect width="120" height="60" fill="white" transform="translate(0.499329)"/>
</clipPath>
</defs>
</svg>
