<svg width="121" height="44" viewBox="0 0 121 44" fill="none" xmlns="http://www.w3.org/2000/svg">
<g id="smile">
<path id="Vector" fill-rule="evenodd" clip-rule="evenodd" d="M23.011 43.1433L29.6322 24.3495C30.9564 21.0083 33.0956 20.9039 33.2993 20.9039C34.6236 20.9039 36.559 20.1731 39.1056 17.7716L39.6149 17.2496L39.8187 17.0408C43.2821 14.0129 46.7455 12.9688 49.2921 12.9688C53.3667 12.9688 55.6077 14.5349 56.0152 18.1893C58.9693 14.6393 63.2476 12.9688 66.8128 12.9688C73.8415 12.9688 74.1471 17.9804 71.8042 24.5583L65.183 43.1433H57.7469L63.9606 25.6024C64.8774 22.7833 66.3035 18.9201 62.0252 18.9201C57.0338 18.9201 54.2835 24.9759 52.9592 28.8391L47.866 43.1433H40.328L46.6436 25.6024C47.5604 22.7833 48.9865 18.9201 44.6063 18.9201C39.7168 18.9201 36.9665 24.9759 35.5404 28.8391L30.4471 43.1433H23.011ZM67.7296 43.1433L78.2217 13.6996H85.6578L75.1658 43.1433H67.7296Z" fill="#87919A"/>
<path id="Vector_2" d="M29.8364 13.4908L31.8737 14.0129L32.1793 14.1173L34.3184 14.7437C30.2438 19.651 24.0301 18.6069 24.0301 18.6069H23.0114C20.9741 18.6069 18.2238 19.3378 17.1033 21.8436C15.066 26.5421 29.4289 23.6186 24.7431 34.164C21.6872 41.0551 14.5567 43.7698 8.44478 43.7698C5.59257 43.7698 2.94408 43.2477 0.499329 42.5169L2.74035 38.236H10.1765C12.1119 38.236 15.4735 37.5052 16.6958 34.5817C19.2424 28.8391 4.57392 32.8067 9.2597 22.1569C12.01 15.7878 18.6313 12.9688 24.5394 12.9688C26.7804 12.9688 28.4103 13.1776 29.8364 13.4908Z" fill="#87919A"/>
<path id="Vector_3" fill-rule="evenodd" clip-rule="evenodd" d="M100.529 0.230469L87.3887 37.1917C85.1477 42.5166 79.3414 43.0387 78.2209 43.1431H77.8134L92.9913 0.230469H100.529ZM100.427 25.4978H113.16C114.281 21.8434 113.67 18.6067 109.493 18.6067C105.317 18.6067 102.159 21.5302 100.427 25.4978ZM104.095 38.2358H113.67L112.447 41.4725C109.188 43.0387 105.826 43.7696 101.752 43.7696C92.2782 43.7696 88.8148 38.2358 92.1764 28.5257C95.2323 20.0684 102.159 12.9685 111.021 12.9685C121.717 12.9685 122.023 20.4861 118.457 30.8227H98.5938C97.1677 35.5211 99.5106 38.2358 104.095 38.2358Z" fill="#87919A"/>
<path id="Vector_4" fill-rule="evenodd" clip-rule="evenodd" d="M78.9338 11.507L80.7674 6.49527C81.073 5.55558 81.9898 4.19824 85.8606 4.19824H89.0185L88.8147 4.8247C86.2681 11.507 79.3413 11.507 79.3413 11.507H78.9338Z" fill="#B0D235"/>
</g>
</svg>
