<svg width="141" height="71" viewBox="0 0 141 71" fill="none" xmlns="http://www.w3.org/2000/svg">
<g id="MTN Nigeria svg" clip-path="url(#clip0_708_728)">
<path id="Vector" d="M70.4988 0.0859375C31.5635 0.0859375 0 15.8692 0 35.3359C0 54.8027 31.5635 70.5859 70.4988 70.5859C109.434 70.5859 141 54.8027 141 35.3359C141 15.8692 109.431 0.0859375 70.4988 0.0859375ZM70.4988 65.0222C34.6376 65.0222 5.56608 51.7311 5.56608 35.3359C5.56608 18.9408 34.6376 5.65212 70.4988 5.65212C106.36 5.65212 135.434 18.9408 135.434 35.3359C135.434 51.7311 106.362 65.0222 70.4988 65.0222ZM61.6099 29.153V23.5868H81.5066V29.153H74.3438V47.0926H68.7702V29.153H61.6099ZM105.507 23.5868V47.0926H99.9408L89.8457 33.1025V47.0926H84.2822V23.5868H89.8457L99.9408 37.5768V23.5868H105.507ZM35.329 47.0926V23.5868H40.895L47.0779 33.0975L53.2608 23.5868H58.8269V47.0926H53.2608V33.7939L49.0328 40.2828H45.1156L40.8876 33.7939V47.0926H35.329Z" fill="white"/>
</g>
<defs>
<clipPath id="clip0_708_728">
<rect width="141" height="70.5" fill="white" transform="translate(0 0.0859375)"/>
</clipPath>
</defs>
</svg>
