<svg width="24" height="24" viewBox="0 0 24 24" fill="none" xmlns="http://www.w3.org/2000/svg">
<g id="heroicons-mini/arrow-down-right">
<path id="Union" d="M7.5364 6.2636C7.18492 5.91213 6.61508 5.91213 6.2636 6.2636C5.91213 6.61508 5.91213 7.18492 6.2636 7.5364L14.9272 16.2H8.1C7.60294 16.2 7.2 16.6029 7.2 17.1C7.2 17.5971 7.60294 18 8.1 18H17.1C17.222 18 17.3384 17.9757 17.4445 17.9317C17.5482 17.8888 17.6456 17.8256 17.7305 17.7422C17.7344 17.7384 17.7384 17.7344 17.7422 17.7305C17.8256 17.6456 17.8888 17.5482 17.9317 17.4445C17.9757 17.3384 18 17.222 18 17.1V8.1C18 7.60294 17.5971 7.2 17.1 7.2C16.6029 7.2 16.2 7.60294 16.2 8.1V14.9272L7.5364 6.2636Z" fill="white"/>
</g>
</svg>
