<svg width="55" height="55" viewBox="0 0 55 55" fill="none" xmlns="http://www.w3.org/2000/svg">
<g id="heroicons-outline/chat-bubble-oval-left-ellipsis">
<path id="Vector" d="M19.6358 27.319C19.6358 27.7905 19.2536 28.1727 18.7821 28.1727C18.3106 28.1727 17.9284 27.7905 17.9284 27.319C17.9284 26.8475 18.3106 26.4653 18.7821 26.4653C19.2536 26.4653 19.6358 26.8475 19.6358 27.319ZM19.6358 27.319H18.7821M28.173 27.319C28.173 27.7905 27.7908 28.1727 27.3193 28.1727C26.8478 28.1727 26.4656 27.7905 26.4656 27.319C26.4656 26.8475 26.8478 26.4653 27.3193 26.4653C27.7908 26.4653 28.173 26.8475 28.173 27.319ZM28.173 27.319H27.3193M36.7103 27.319C36.7103 27.7905 36.328 28.1727 35.8565 28.1727C35.3851 28.1727 35.0028 27.7905 35.0028 27.319C35.0028 26.8475 35.3851 26.4653 35.8565 26.4653C36.328 26.4653 36.7103 26.8475 36.7103 27.319ZM36.7103 27.319H35.8565M47.8087 27.319C47.8087 37.692 38.6353 46.1009 27.3193 46.1009C25.2989 46.1009 23.3468 45.8329 21.503 45.3334C19.2833 46.8929 16.5784 47.8084 13.6597 47.8084C13.2062 47.8084 12.7577 47.7863 12.3158 47.7431C11.9523 47.7077 11.5921 47.6579 11.237 47.5943C12.3378 46.2951 13.1197 44.7183 13.4637 42.9838C13.6701 41.9434 13.1605 40.9328 12.4004 40.193C8.94651 36.831 6.82996 32.3016 6.82996 27.319C6.82996 16.9461 16.0034 8.53711 27.3193 8.53711C38.6353 8.53711 47.8087 16.9461 47.8087 27.319Z" stroke="white" stroke-width="5" stroke-linecap="round" stroke-linejoin="round"/>
</g>
</svg>
