<svg width="75" height="75" viewBox="0 0 75 75" fill="none" xmlns="http://www.w3.org/2000/svg">
<path d="M32.9152 6.50836C35.1492 3.33713 39.8508 3.33713 42.0848 6.50836C43.6453 8.72351 46.5663 9.50621 49.0253 8.36806C52.5456 6.73867 56.6173 9.0895 56.9664 12.9529C57.2102 15.6515 59.3485 17.7898 62.0471 18.0336C65.9105 18.3827 68.2613 22.4544 66.6319 25.9747C65.4938 28.4337 66.2765 31.3547 68.4916 32.9152C71.6629 35.1492 71.6629 39.8508 68.4916 42.0848C66.2765 43.6453 65.4938 46.5663 66.6319 49.0253C68.2613 52.5456 65.9105 56.6173 62.0471 56.9664C59.3485 57.2102 57.2102 59.3485 56.9664 62.0471C56.6173 65.9105 52.5456 68.2613 49.0253 66.6319C46.5663 65.4938 43.6453 66.2765 42.0848 68.4916C39.8508 71.6629 35.1492 71.6629 32.9152 68.4916C31.3547 66.2765 28.4337 65.4938 25.9747 66.6319C22.4544 68.2613 18.3827 65.9105 18.0336 62.0471C17.7898 59.3485 15.6515 57.2102 12.9529 56.9664C9.0895 56.6173 6.73867 52.5456 8.36806 49.0253C9.50621 46.5663 8.72351 43.6453 6.50836 42.0848C3.33713 39.8508 3.33713 35.1492 6.50836 32.9152C8.72351 31.3547 9.50621 28.4337 8.36806 25.9747C6.73867 22.4544 9.0895 18.3827 12.9529 18.0336C15.6515 17.7898 17.7898 15.6515 18.0336 12.9529C18.3827 9.0895 22.4544 6.73867 25.9747 8.36806C28.4337 9.50621 31.3547 8.72351 32.9152 6.50836Z" fill="#049BFF"/>
<path d="M22.2305 53.1226C20.9186 54.1078 19.438 53.8471 18.3448 52.3915C17.254 50.9391 17.4225 49.4398 18.7281 48.4593C19.812 47.6453 21.1527 47.7131 21.9822 48.668L21.0639 49.3577C20.5612 48.8705 19.8643 48.8272 19.3146 49.2401C18.6025 49.775 18.5914 50.7164 19.3045 51.6659C20.027 52.6279 20.9256 52.8812 21.6471 52.3393C22.2062 51.9194 22.3628 51.2889 22.0617 50.6797L22.9799 49.99C23.6291 51.0755 23.3362 52.2921 22.2305 53.1226ZM26.2519 50.0926C25.2399 50.8526 24.1054 50.6885 23.2797 49.589C22.4657 48.5052 22.6266 47.3535 23.6293 46.6005C24.6319 45.8475 25.7804 46.0108 26.5968 47.0978C27.4249 48.2004 27.2639 49.3325 26.2519 50.0926ZM25.7288 49.396C26.1754 49.0606 26.1758 48.4692 25.6715 47.7976C25.1718 47.1323 24.5959 46.964 24.1524 47.2971C23.7089 47.6302 23.7069 48.2325 24.2066 48.8978C24.7109 49.5694 25.279 49.7338 25.7288 49.396ZM28.3281 48.4209L25.8134 45.0725L26.6942 44.411L27.1493 45.017L27.168 45.0029C27.006 44.4944 27.1658 43.9591 27.6218 43.6166C28.106 43.253 28.631 43.2496 29.0718 43.6024L29.0906 43.5883C28.9238 43.0541 29.1242 42.4883 29.6146 42.12C30.2705 41.6274 31.0487 41.7464 31.5554 42.4211L33.2725 44.7074L32.3605 45.3924L30.8146 43.3341C30.5237 42.9468 30.1706 42.8798 29.8176 43.1449C29.4709 43.4053 29.4329 43.8295 29.712 44.2012L31.2392 46.2346L30.3615 46.8937L28.7945 44.8073C28.5247 44.4481 28.1622 44.3882 27.8248 44.6415C27.4781 44.9019 27.4409 45.3402 27.7224 45.715L29.2402 47.7359L28.3281 48.4209ZM33.866 44.2617L31.3513 40.9134L32.2633 40.2284L34.778 43.5767L33.866 44.2617ZM31.5305 40.2023C31.2556 40.4088 30.8861 40.359 30.689 40.0966C30.4896 39.8311 30.5472 39.4655 30.8221 39.2591C31.0969 39.0526 31.4641 39.0993 31.6635 39.3647C31.8606 39.6271 31.8054 39.9959 31.5305 40.2023ZM35.3871 43.1193L32.8724 39.771L33.7532 39.1095L34.2013 39.706L34.22 39.692C34.086 39.1428 34.256 38.6341 34.7714 38.2471C35.5148 37.6888 36.2852 37.8429 36.874 38.6269L38.4949 40.7852L37.5829 41.4702L36.105 39.5024C35.7766 39.0651 35.3828 38.9701 34.9736 39.2774C34.5645 39.5847 34.5304 40.0793 34.8565 40.5134L36.2992 42.4343L35.3871 43.1193ZM40.084 38.4779C40.5401 38.1354 40.5584 37.555 40.1033 36.949C39.6506 36.3462 39.0692 36.177 38.6132 36.5195C38.1634 36.8573 38.1654 37.4518 38.6228 38.0609C39.0826 38.6731 39.6311 38.8181 40.084 38.4779ZM41.551 40.4637C40.6702 41.1252 39.7522 41.1453 39.2323 40.6027L40.1256 39.9318C40.3711 40.109 40.7531 40.0712 41.0998 39.8108C41.5714 39.4566 41.6367 38.9972 41.3459 38.6099L40.9048 38.0227L40.8861 38.0368C40.9973 38.5101 40.7868 39.0493 40.3026 39.4129C39.4843 40.0275 38.4701 39.8024 37.6842 38.7561C36.8866 37.6941 36.9211 36.6472 37.7707 36.0091C38.2517 35.6479 38.8196 35.617 39.2831 35.8699L39.2987 35.8581L38.86 35.274L39.7596 34.5984L42.2391 37.8999C42.8397 38.6995 42.5536 39.7107 41.551 40.4637ZM43.0843 35.3306L43.9932 34.648C44.3161 34.9868 44.8864 34.9396 45.3861 34.5643C45.889 34.1866 46.052 33.688 45.8033 33.3569C45.5828 33.0633 45.2453 33.0628 44.6103 33.3491L43.927 33.6621C42.9624 34.108 42.2365 33.9937 41.7416 33.3346C41.1176 32.5038 41.4231 31.4145 42.4289 30.6592C43.4783 29.871 44.5432 29.9164 45.1711 30.7199L44.2872 31.3837C43.9697 31.0261 43.4619 31.046 42.9903 31.4002C42.5249 31.7497 42.3791 32.2061 42.6301 32.5403C42.8389 32.8183 43.1748 32.8102 43.7825 32.5395L44.4159 32.2446C45.464 31.7603 46.1484 31.852 46.6645 32.5392C47.3213 33.4138 47.0275 34.4991 45.9093 35.3389C44.8255 36.1529 43.7481 36.156 43.0843 35.3306ZM49.7714 32.4285C48.7595 33.1886 47.625 33.0245 46.7992 31.925C45.9852 30.8412 46.1462 29.6895 47.1488 28.9365C48.1514 28.1835 49.3 28.3468 50.1163 29.4338C50.9444 30.5364 50.7834 31.6685 49.7714 32.4285ZM49.2483 31.732C49.695 31.3966 49.6954 30.8051 49.191 30.1336C48.6914 29.4683 48.1155 29.2999 47.6719 29.6331C47.2284 29.9662 47.2265 30.5685 47.7261 31.2338C48.2305 31.9053 48.7986 32.0698 49.2483 31.732ZM53.4384 29.6745C52.4264 30.4346 51.2919 30.2705 50.4662 29.171C49.6522 28.0872 49.8131 26.9355 50.8157 26.1825C51.8184 25.4295 52.9669 25.5928 53.7833 26.6798C54.6113 27.7824 54.4504 28.9145 53.4384 29.6745ZM52.9153 28.978C53.3619 28.6426 53.3623 28.0512 52.8579 27.3796C52.3583 26.7143 51.7824 26.546 51.3389 26.8791C50.8953 27.2122 50.8934 27.8145 51.3931 28.4798C51.8974 29.1513 52.4655 29.3158 52.9153 28.978ZM55.5146 28.0029L52.9999 24.6545L53.8807 23.993L54.3288 24.5896L54.3475 24.5755C54.2135 24.0264 54.3835 23.5177 54.8989 23.1306C55.6423 22.5723 56.4127 22.7265 57.0015 23.5105L58.6224 25.6688L57.7104 26.3537L56.2325 24.386C55.9041 23.9487 55.5103 23.8536 55.1011 24.1609C54.692 24.4682 54.6579 24.9628 54.984 25.397L56.4267 27.3179L55.5146 28.0029Z" fill="white"/>
</svg>
