<svg width="245" height="174" viewBox="0 0 245 174" fill="none" xmlns="http://www.w3.org/2000/svg">
<path d="M245 198.5C245 308.129 156.129 397 46.5 397C-63.1285 397 -152 308.129 -152 198.5C-152 88.8715 -63.1285 0 46.5 0C156.129 0 245 88.8715 245 198.5ZM-148.531 198.5C-148.531 306.213 -61.2126 393.531 46.5 393.531C154.213 393.531 241.531 306.213 241.531 198.5C241.531 90.7874 154.213 3.46901 46.5 3.46901C-61.2126 3.46901 -148.531 90.7874 -148.531 198.5Z" fill="#049BFF"/>
<path d="M212.639 199.319C212.639 291.175 138.175 365.639 46.3193 365.639C-45.5363 365.639 -120 291.175 -120 199.319C-120 107.464 -45.5363 33 46.3193 33C138.175 33 212.639 107.464 212.639 199.319ZM-117.093 199.319C-117.093 289.57 -43.931 362.732 46.3193 362.732C136.57 362.732 209.732 289.57 209.732 199.319C209.732 109.069 136.57 35.9066 46.3193 35.9066C-43.931 35.9066 -117.093 109.069 -117.093 199.319Z" fill="#049BFF"/>
<path d="M183.744 199.372C183.744 275.241 122.241 336.744 46.3721 336.744C-29.4964 336.744 -91 275.241 -91 199.372C-91 123.504 -29.4964 62 46.3721 62C122.241 62 183.744 123.504 183.744 199.372ZM-88.5993 199.372C-88.5993 273.915 -28.1705 334.343 46.3721 334.343C120.915 334.343 181.343 273.915 181.343 199.372C181.343 124.829 120.915 64.4007 46.3721 64.4007C-28.1705 64.4007 -88.5993 124.829 -88.5993 199.372Z" fill="#049BFF"/>
<path d="M153.955 199.478C153.955 258.836 105.836 306.955 46.4775 306.955C-12.8807 306.955 -61 258.836 -61 199.478C-61 140.119 -12.8807 92 46.4775 92C105.836 92 153.955 140.119 153.955 199.478ZM-59.1217 199.478C-59.1217 257.798 -11.8433 305.077 46.4775 305.077C104.798 305.077 152.077 257.798 152.077 199.478C152.077 141.157 104.798 93.8783 46.4775 93.8783C-11.8433 93.8783 -59.1217 141.157 -59.1217 199.478Z" fill="#049BFF"/>
<path d="M130.525 199.263C130.525 245.8 92.7996 283.525 46.2626 283.525C-0.274342 283.525 -38 245.8 -38 199.263C-38 152.726 -0.274342 115 46.2626 115C92.7996 115 130.525 152.726 130.525 199.263ZM-36.5274 199.263C-36.5274 244.986 0.538944 282.053 46.2626 282.053C91.9863 282.053 129.053 244.986 129.053 199.263C129.053 153.539 91.9863 116.473 46.2626 116.473C0.538944 116.473 -36.5274 153.539 -36.5274 199.263Z" fill="#049BFF"/>
<path d="M103.845 198.839C103.845 230.697 78.0187 256.523 46.1608 256.523C14.3029 256.523 -11.5229 230.697 -11.5229 198.839C-11.5229 166.981 14.3029 141.155 46.1608 141.155C78.0187 141.155 103.845 166.981 103.845 198.839ZM-10.5149 198.839C-10.5149 230.14 14.8597 255.515 46.1608 255.515C77.4619 255.515 102.836 230.14 102.836 198.839C102.836 167.538 77.4619 142.163 46.1608 142.163C14.8597 142.163 -10.5149 167.538 -10.5149 198.839Z" fill="#049BFF"/>
</svg>
