<svg width="150" height="150" viewBox="0 0 150 150" fill="none" xmlns="http://www.w3.org/2000/svg">
<g id="ph:seal-check-fill">
<path id="Vector" d="M132.34 60.2461C130.131 57.9375 127.846 55.5586 126.984 53.4668C126.188 51.5508 126.141 48.375 126.094 45.2988C126.006 39.5801 125.912 33.0996 121.406 28.5938C116.9 24.0879 110.42 23.9941 104.701 23.9062C101.625 23.8594 98.4492 23.8125 96.5332 23.0156C94.4473 22.1543 92.0625 19.8691 89.7539 17.6602C85.7109 13.7754 81.1172 9.375 75 9.375C68.8828 9.375 64.2949 13.7754 60.2461 17.6602C57.9375 19.8691 55.5586 22.1543 53.4668 23.0156C51.5625 23.8125 48.375 23.8594 45.2988 23.9062C39.5801 23.9941 33.0996 24.0879 28.5938 28.5938C24.0879 33.0996 24.0234 39.5801 23.9062 45.2988C23.8594 48.375 23.8125 51.5508 23.0156 53.4668C22.1543 55.5527 19.8691 57.9375 17.6602 60.2461C13.7754 64.2891 9.375 68.8828 9.375 75C9.375 81.1172 13.7754 85.7051 17.6602 89.7539C19.8691 92.0625 22.1543 94.4414 23.0156 96.5332C23.8125 98.4492 23.8594 101.625 23.9062 104.701C23.9941 110.42 24.0879 116.9 28.5938 121.406C33.0996 125.912 39.5801 126.006 45.2988 126.094C48.375 126.141 51.5508 126.188 53.4668 126.984C55.5527 127.846 57.9375 130.131 60.2461 132.34C64.2891 136.225 68.8828 140.625 75 140.625C81.1172 140.625 85.7051 136.225 89.7539 132.34C92.0625 130.131 94.4414 127.846 96.5332 126.984C98.4492 126.188 101.625 126.141 104.701 126.094C110.42 126.006 116.9 125.912 121.406 121.406C125.912 116.9 126.006 110.42 126.094 104.701C126.141 101.625 126.188 98.4492 126.984 96.5332C127.846 94.4473 130.131 92.0625 132.34 89.7539C136.225 85.7109 140.625 81.1172 140.625 75C140.625 68.8828 136.225 64.2949 132.34 60.2461ZM101.754 64.2539L68.9414 97.0664C68.5061 97.5022 67.9891 97.848 67.42 98.0839C66.851 98.3198 66.241 98.4412 65.625 98.4412C65.009 98.4412 64.399 98.3198 63.83 98.0839C63.2609 97.848 62.7439 97.5022 62.3086 97.0664L48.2461 83.0039C47.3665 82.1243 46.8724 80.9314 46.8724 79.6875C46.8724 78.4436 47.3665 77.2507 48.2461 76.3711C49.1257 75.4915 50.3186 74.9974 51.5625 74.9974C52.8064 74.9974 53.9993 75.4915 54.8789 76.3711L65.625 87.123L95.1211 57.6211C95.5566 57.1856 96.0736 56.8401 96.6427 56.6044C97.2117 56.3687 97.8216 56.2474 98.4375 56.2474C99.0534 56.2474 99.6633 56.3687 100.232 56.6044C100.801 56.8401 101.318 57.1856 101.754 57.6211C102.189 58.0566 102.535 58.5736 102.771 59.1427C103.006 59.7117 103.128 60.3216 103.128 60.9375C103.128 61.5534 103.006 62.1633 102.771 62.7323C102.535 63.3014 102.189 63.8184 101.754 64.2539Z" fill="#049BFF"/>
</g>
</svg>
