<svg width="183" height="144" viewBox="0 0 183 144" fill="none" xmlns="http://www.w3.org/2000/svg">
<g id="Frame 177" filter="url(#filter0_d_370_1280)">
<path id="Vector" fill-rule="evenodd" clip-rule="evenodd" d="M108.168 87.6672C111.195 90.6355 115.18 92.5704 120.23 93.0444C137.478 94.6632 148.589 85.1378 155.135 71.1316C164.332 51.4437 164.138 22.631 160.031 6.72083C159.55 4.86202 157.653 3.7453 155.796 4.22249C153.94 4.70417 152.82 6.6001 153.3 8.45891C157.108 23.2107 157.367 49.9323 148.837 68.1874C143.564 79.4797 134.781 87.4285 120.878 86.1255C117.872 85.8431 115.464 84.7592 113.567 83.1075C114.855 81.9552 116.112 80.787 117.333 79.6046C122.219 74.8672 132.459 60.392 135.692 48.042C138.248 38.269 136.502 29.8378 127.323 26.474C122.068 24.5465 116.983 26.164 112.633 30.4C107.269 35.6244 103.02 45.1881 101.313 55.2986C99.8904 63.7048 100.224 72.4459 102.849 79.278C103.216 80.2356 103.627 81.1581 104.08 82.0412C78.2729 102.865 41.0492 116.912 8.77772 116.371C6.86098 116.339 5.28084 117.869 5.24704 119.789C5.21452 121.705 6.74741 123.287 8.66415 123.319C42.3245 123.884 81.1402 109.322 108.168 87.6672ZM109.571 77.3535C110.565 76.451 111.541 75.5377 112.492 74.614C116.878 70.3624 126.066 57.3686 128.968 46.2823C130.503 40.4153 130.438 35.0191 124.928 32.9979C122.226 32.0062 119.717 33.2006 117.483 35.3791C114.518 38.2658 112.067 42.804 110.302 47.9701C107.569 55.9861 106.523 65.5331 108.284 73.2784C108.61 74.709 109.034 76.0782 109.571 77.3535Z" fill="#3F3F3F"/>
<g id="Group">
<path id="Vector_2" fill-rule="evenodd" clip-rule="evenodd" d="M46.4563 84.5714C38.0986 98.2615 22.2527 110.064 7.59709 116.782C5.85452 117.582 5.08724 119.644 5.88554 121.39C6.68512 123.133 8.75069 123.901 10.4933 123.101C26.3299 115.839 43.3603 102.985 52.3879 88.1928C53.3865 86.5552 52.8679 84.4157 51.2304 83.4172C49.5928 82.4186 47.4548 82.9338 46.4563 84.5714Z" fill="#3F3F3F"/>
</g>
<g id="Group_2">
<path id="Vector_3" fill-rule="evenodd" clip-rule="evenodd" d="M9.97065 123.608C23.0263 121.762 39.6643 127.454 50.3375 135.264C51.8882 136.396 54.0649 136.057 55.1959 134.509C56.327 132.962 55.991 130.786 54.4416 129.651C42.4394 120.876 23.6765 114.649 8.99639 116.725C7.09903 116.991 5.77412 118.754 6.04422 120.652C6.31433 122.551 8.0733 123.874 9.97065 123.608Z" fill="#3F3F3F"/>
</g>
</g>
<defs>
<filter id="filter0_d_370_1280" x="-4" y="0" width="190.583" height="143.933" filterUnits="userSpaceOnUse" color-interpolation-filters="sRGB">
<feFlood flood-opacity="0" result="BackgroundImageFix"/>
<feColorMatrix in="SourceAlpha" type="matrix" values="0 0 0 0 0 0 0 0 0 0 0 0 0 0 0 0 0 0 127 0" result="hardAlpha"/>
<feOffset dy="4"/>
<feGaussianBlur stdDeviation="2"/>
<feComposite in2="hardAlpha" operator="out"/>
<feColorMatrix type="matrix" values="0 0 0 0 0 0 0 0 0 0 0 0 0 0 0 0 0 0 0.25 0"/>
<feBlend mode="normal" in2="BackgroundImageFix" result="effect1_dropShadow_370_1280"/>
<feBlend mode="normal" in="SourceGraphic" in2="effect1_dropShadow_370_1280" result="shape"/>
</filter>
</defs>
</svg>
