<svg width="40" height="26" viewBox="0 0 40 26" fill="none" xmlns="http://www.w3.org/2000/svg">
<g id="logos:mastercard">
<path id="Vector" d="M14.5779 2.64062H25.3826V22.0548H14.5779V2.64062Z" fill="#FF5F00"/>
<path id="Vector_2" d="M15.2639 12.3483C15.2639 8.40375 17.1161 4.905 19.963 2.64109C17.8708 0.994688 15.2297 0 12.3484 0C5.52234 0 0 5.52234 0 12.3483C0 19.1741 5.52234 24.6966 12.3483 24.6966C15.2295 24.6966 17.8706 23.7019 19.963 22.0553C17.1161 19.8258 15.2639 16.2928 15.2639 12.3483Z" fill="#EB001B"/>
<path id="Vector_3" d="M39.9603 12.3483C39.9603 19.1741 34.4379 24.6966 27.612 24.6966C24.7308 24.6966 22.0897 23.7019 19.9973 22.0553C22.8786 19.7916 24.6965 16.2928 24.6965 12.3483C24.6965 8.40375 22.8442 4.905 19.9973 2.64109C22.0895 0.994688 24.7308 0 27.612 0C34.4379 0 39.9603 5.55672 39.9603 12.3483Z" fill="#F79E1B"/>
</g>
</svg>
