<svg xmlns="http://www.w3.org/2000/svg" width="30" height="30" viewBox="0 0 30 30" fill="none">
  <path fill-rule="evenodd" clip-rule="evenodd" d="M9.37554 7.5C9.37554 4.3934 11.8939 1.875 15.0005 1.875C18.1071 1.875 20.6255 4.3934 20.6255 7.5C20.6255 10.6066 18.1071 13.125 15.0005 13.125C11.8939 13.125 9.37554 10.6066 9.37554 7.5Z" fill="#585858"/>
  <path fill-rule="evenodd" clip-rule="evenodd" d="M4.68959 25.1317C4.78627 19.5195 9.36552 15 15.0005 15C20.6357 15 25.215 19.5197 25.3115 25.1321C25.3179 25.5043 25.1035 25.845 24.7651 26.0002C21.7914 27.3647 18.4837 28.125 15.0009 28.125C11.5179 28.125 8.20983 27.3646 5.23594 25.9999C4.8976 25.8446 4.68318 25.5039 4.68959 25.1317Z" fill="#585858"/>
</svg>