<svg width="159" height="170" viewBox="0 0 159 170" fill="none" xmlns="http://www.w3.org/2000/svg">
<path id="up" d="M84.5 165.06C84.5 167.394 82.6072 169.296 80.2767 169.18C66.6743 168.499 53.4153 164.539 41.6417 157.61C28.6525 149.965 17.9443 138.986 10.627 125.81C3.3097 112.634 -0.350298 97.7402 0.0263968 82.6732C0.403092 67.6062 4.80277 52.9142 12.7693 40.1201C20.7359 27.3261 31.9795 16.8956 45.3344 9.90987C58.6894 2.92418 73.6698 -0.362427 88.7226 0.390727C103.775 1.14388 118.353 5.90939 130.944 14.1932C142.356 21.7018 151.76 31.8533 158.373 43.7598C159.506 45.7998 158.633 48.3378 156.539 49.3673L143.381 55.8363C141.287 56.8658 138.768 55.9941 137.597 53.9759C132.829 45.7593 126.209 38.7436 118.241 33.5012C109.094 27.4831 98.5033 24.021 87.5676 23.4738C76.632 22.9267 65.749 25.3144 56.0468 30.3894C46.3446 35.4644 38.1763 43.042 32.3887 52.3367C26.6011 61.6314 23.4048 72.3049 23.1312 83.2509C22.8575 94.1968 25.5164 105.017 30.8323 114.589C36.1482 124.161 43.9276 132.138 53.3641 137.691C61.5842 142.529 70.8011 145.375 80.2782 146.028C82.6061 146.188 84.5 148.065 84.5 150.398V165.06Z" fill="#049BFF"/>
</svg>
