<svg width="169" height="170" viewBox="0 0 169 170" fill="none" xmlns="http://www.w3.org/2000/svg">
<path id="up" d="M84.5 165.06C84.5 167.394 82.607 169.296 80.2765 169.18C60.4104 168.186 41.4782 160.208 26.8661 146.58C11.2215 131.989 1.69367 112.007 0.204873 90.6658C-1.28392 69.3248 5.37721 48.2135 18.8442 31.5914C32.3113 14.9694 51.5817 4.07402 72.7673 1.10366C93.9529 -1.86671 115.477 3.30907 132.996 15.5867C150.514 27.8643 162.725 46.3297 167.162 67.2572C171.6 88.1848 167.934 110.016 156.906 128.347C146.605 145.469 130.597 158.345 111.77 164.764C109.561 165.517 107.218 164.208 106.576 161.965L102.544 147.868C101.902 145.625 103.207 143.3 105.401 142.505C118.606 137.724 129.818 128.539 137.102 116.432C145.114 103.115 147.777 87.2549 144.553 72.0514C141.329 56.8478 132.459 43.433 119.731 34.5135C107.004 25.594 91.3674 21.8339 75.9764 23.9918C60.5853 26.1497 46.5857 34.065 36.8021 46.1407C27.0185 58.2164 22.1792 73.5534 23.2608 89.0573C24.3424 104.561 31.2643 119.078 42.6298 129.678C52.9621 139.315 66.2677 145.063 80.2781 146.028C82.606 146.188 84.5 148.065 84.5 150.398V165.06Z" fill="#049BFF"/>
</svg>
