<svg width="85" height="144" viewBox="0 0 85 144" fill="none" xmlns="http://www.w3.org/2000/svg">
<path id="up" d="M84.5 139.06C84.5 141.394 82.607 143.296 80.2765 143.18C65.0464 142.418 50.2771 137.545 37.5543 129.044C23.6584 119.759 12.8278 106.562 6.43218 91.1219C0.0365724 75.6815 -1.63681 58.6914 1.62365 42.3C4.60884 27.2924 11.6072 13.4039 21.8377 2.09574C23.4031 0.365381 26.087 0.372185 27.737 2.02215L38.1046 12.3897C39.7546 14.0397 39.7422 16.7058 38.2096 18.4653C31.1942 26.5194 26.3848 36.2855 24.2915 46.8089C21.9229 58.717 23.1386 71.0601 27.7849 82.2773C32.4312 93.4945 40.2994 103.082 50.3946 109.827C59.316 115.788 69.6225 119.293 80.2781 120.028C82.606 120.188 84.5 122.065 84.5 124.398V139.06Z" fill="#049BFF"/>
</svg>
