<svg width="30" height="30" viewBox="0 0 30 30" fill="none" xmlns="http://www.w3.org/2000/svg">
<g id="heroicons-solid/user">
<g id="Vector">
<path fill-rule="evenodd" clip-rule="evenodd" d="M9.37505 7.5C9.37505 4.3934 11.8934 1.875 15 1.875C18.1066 1.875 20.625 4.3934 20.625 7.5C20.625 10.6066 18.1066 13.125 15 13.125C11.8934 13.125 9.37505 10.6066 9.37505 7.5Z" fill="#585858"/>
<path fill-rule="evenodd" clip-rule="evenodd" d="M4.6891 25.1317C4.78578 19.5195 9.36503 15 15 15C20.6352 15 25.2145 19.5197 25.311 25.1321C25.3174 25.5043 25.103 25.845 24.7646 26.0002C21.7909 27.3647 18.4832 28.125 15.0004 28.125C11.5174 28.125 8.20934 27.3646 5.23545 25.9999C4.89711 25.8446 4.68269 25.5039 4.6891 25.1317Z" fill="#585858"/>
</g>
</g>
</svg>
