<svg width="42" height="41" viewBox="0 0 42 41" fill="none" xmlns="http://www.w3.org/2000/svg">
<g id="Frame 1000003879">
<rect y="0.335938" width="42" height="40" rx="5" fill="#C3D8E5"/>
<g id="Group 1000003359">
<rect id="Rectangle 6365" x="6" y="5" width="30" height="30" rx="4" fill="#049BFF"/>
<path id="Vector" fill-rule="evenodd" clip-rule="evenodd" d="M20.7883 8C19.6603 8 18.6975 8.81557 18.512 9.92831L18.3994 10.6043C18.3417 10.9501 18.0918 11.2296 17.7635 11.3526C17.5638 11.4273 17.3674 11.5088 17.1746 11.5967C16.8555 11.7422 16.4809 11.7214 16.1955 11.5176L15.6375 11.119C14.7196 10.4633 13.4621 10.5674 12.6644 11.365L12.3651 11.6644C11.5674 12.4621 11.4633 13.7195 12.119 14.6375L12.5176 15.1955C12.7214 15.4808 12.7422 15.8555 12.5968 16.1745C12.5088 16.3674 12.4273 16.5638 12.3526 16.7635C12.2296 17.0918 11.9501 17.3417 11.6043 17.3994L10.9283 17.512C9.81557 17.6975 9 18.6602 9 19.7883V20.2117C9 21.3397 9.81557 22.3025 10.9283 22.488L11.6043 22.6006C11.9501 22.6582 12.2296 22.9082 12.3526 23.2366C12.4273 23.4362 12.5088 23.6326 12.5967 23.8255C12.7422 24.1445 12.7214 24.5191 12.5176 24.8044L12.119 25.3625C11.4633 26.2805 11.5673 27.538 12.365 28.3356L12.6644 28.635C13.462 29.4326 14.7195 29.5367 15.6375 28.881L16.1955 28.4825C16.4808 28.2786 16.8555 28.2577 17.1745 28.4032C17.3674 28.4912 17.5638 28.5727 17.7635 28.6474C18.0918 28.7703 18.3417 29.0498 18.3994 29.3957L18.512 30.0716C18.6975 31.1844 19.6602 32 20.7883 32H21.2117C22.3397 32 23.3025 31.1845 23.488 30.0716L23.6006 29.3957C23.6582 29.05 23.9082 28.7703 24.2366 28.6475C24.4362 28.5727 24.6326 28.4912 24.8255 28.4033C25.1445 28.2577 25.5191 28.2786 25.8044 28.4825L26.3625 28.881C27.2805 29.5367 28.5378 29.4326 29.3356 28.635L29.635 28.3356C30.4326 27.538 30.5366 26.2805 29.881 25.3625L29.4825 24.8046C29.2786 24.5191 29.2577 24.1445 29.4032 23.8255C29.4912 23.6326 29.5727 23.4362 29.6474 23.2366C29.7703 22.9082 30.0498 22.6582 30.3957 22.6006L31.0716 22.488C32.1844 22.3025 33 21.3398 33 20.2117V19.7883C33 18.6603 32.1845 17.6975 31.0716 17.512L30.3957 17.3994C30.05 17.3417 29.7703 17.0918 29.6475 16.7635C29.5727 16.5638 29.4912 16.3674 29.4033 16.1746C29.2577 15.8555 29.2786 15.4809 29.4825 15.1955L29.881 14.6375C30.5367 13.7195 30.4326 12.4621 29.635 11.6644L29.3356 11.365C28.538 10.5674 27.2805 10.4633 26.3626 11.119L25.8046 11.5176C25.5191 11.7214 25.1445 11.7422 24.8255 11.5968C24.6326 11.5088 24.4362 11.4273 24.2366 11.3526C23.9082 11.2296 23.6582 10.9501 23.6006 10.6043L23.488 9.92831C23.3025 8.81557 22.3398 8 21.2117 8H20.7883ZM21 24.6154C23.549 24.6154 25.6154 22.549 25.6154 20C25.6154 17.451 23.549 15.3846 21 15.3846C18.451 15.3846 16.3846 17.451 16.3846 20C16.3846 22.549 18.451 24.6154 21 24.6154Z" fill="white"/>
</g>
</g>
</svg>
