<svg width="42" height="41" viewBox="0 0 42 41" fill="none" xmlns="http://www.w3.org/2000/svg">
<g id="Frame 1000003879">
<rect y="0.335938" width="42" height="40" rx="5" fill="#C3D8E5"/>
<g id="Group 1000003360">
<rect id="Rectangle 6366" x="6" y="5" width="30" height="30" rx="4" fill="#049BFF"/>
<path id="Vector" fill-rule="evenodd" clip-rule="evenodd" d="M14 18C14 14.6863 16.6863 12 20 12C22.528 12 24.6893 13.5628 25.5733 15.7741C25.7135 15.7582 25.8559 15.75 26 15.75C28.0711 15.75 29.75 17.4289 29.75 19.5C29.75 19.6959 29.7349 19.8886 29.7058 20.077C31.0744 20.8481 32 22.3153 32 24C32 26.4853 29.9853 28.5 27.5 28.5H16.25C13.3505 28.5 11 26.1495 11 23.25C11 21.1468 12.2363 19.334 14.0202 18.4959C14.0068 18.3322 14 18.1669 14 18Z" fill="white"/>
<path id="Vector_2" fill-rule="evenodd" clip-rule="evenodd" d="M22.6002 18.1198C22.4593 18.2716 22.4681 18.5089 22.6199 18.6498L23.6701 19.625H19.375C19.1679 19.625 19 19.7929 19 20C19 20.2071 19.1679 20.375 19.375 20.375H23.6701L22.6199 21.3502C22.4681 21.4911 22.4593 21.7284 22.6002 21.8802C22.7412 22.0319 22.9784 22.0407 23.1301 21.8998L24.8801 20.2748C24.9566 20.2038 25 20.1043 25 20C25 19.8957 24.9566 19.7962 24.8801 19.7252L23.1301 18.1002C22.9784 17.9593 22.7412 17.9681 22.6002 18.1198ZM19.3998 22.1198C19.2589 21.9681 19.0216 21.9593 18.8698 22.1002L17.1198 23.7252C17.0434 23.7961 17 23.8957 17 24C17 24.1043 17.0434 24.2038 17.1198 24.2748L18.8698 25.8998C19.0216 26.0407 19.2589 26.0319 19.3998 25.8801C19.5407 25.7284 19.5319 25.4911 19.3802 25.3502L18.33 24.375H22.625C22.8321 24.375 23 24.2071 23 24C23 23.7929 22.8321 23.625 22.625 23.625H18.33L19.3802 22.6498C19.5319 22.5088 19.5407 22.2716 19.3998 22.1198Z" fill="#049BFF"/>
</g>
</g>
</svg>
